<svg width="20" height="20" viewBox="0 0 20 20" fill="none" xmlns="http://www.w3.org/2000/svg">
<g id="ph:link-bold">
<path id="Vector" d="M10.6539 14.6508C10.7413 14.7379 10.8107 14.8413 10.858 14.9553C10.9053 15.0693 10.9296 15.1914 10.9296 15.3148C10.9296 15.4382 10.9053 15.5604 10.858 15.6743C10.8107 15.7883 10.7413 15.8918 10.6539 15.9789L10.1898 16.4429C9.31049 17.3223 8.11782 17.8163 6.87422 17.8163C5.63062 17.8163 4.43795 17.3223 3.5586 16.4429C2.67924 15.5636 2.18522 14.3709 2.18522 13.1273C2.18522 11.8837 2.67924 10.691 3.5586 9.81169L5.44297 7.9281C6.28788 7.0811 7.42467 6.58921 8.62049 6.55319C9.81631 6.51717 10.9806 6.93974 11.875 7.73435C11.9673 7.81642 12.0426 7.91588 12.0965 8.02705C12.1504 8.13821 12.1819 8.2589 12.1891 8.38223C12.1964 8.50556 12.1793 8.62911 12.1388 8.74582C12.0983 8.86254 12.0352 8.97014 11.9531 9.06247C11.8711 9.15481 11.7716 9.23007 11.6604 9.28397C11.5493 9.33787 11.4286 9.36934 11.3052 9.3766C11.1819 9.38385 11.0584 9.36675 10.9417 9.32625C10.8249 9.28576 10.7173 9.22267 10.625 9.1406C10.0887 8.66429 9.39065 8.4109 8.67369 8.43224C7.95672 8.45359 7.27499 8.74807 6.76797 9.25544L4.88516 11.1367C4.35763 11.6642 4.06126 12.3797 4.06126 13.1258C4.06126 13.8718 4.35763 14.5873 4.88516 15.1148C5.41269 15.6423 6.12818 15.9387 6.87422 15.9387C7.62026 15.9387 8.33575 15.6423 8.86328 15.1148L9.32735 14.6508C9.41441 14.5636 9.51781 14.4944 9.63162 14.4473C9.74543 14.4001 9.86742 14.3758 9.99063 14.3758C10.1138 14.3758 10.2358 14.4001 10.3496 14.4473C10.4634 14.4944 10.5668 14.5636 10.6539 14.6508ZM16.4414 3.557C15.5613 2.679 14.3689 2.18591 13.1258 2.18591C11.8826 2.18591 10.6902 2.679 9.81016 3.557L9.3461 4.02107C9.16998 4.19719 9.07103 4.43606 9.07103 4.68513C9.07103 4.9342 9.16998 5.17307 9.3461 5.34919C9.52222 5.52531 9.76109 5.62426 10.0102 5.62426C10.2592 5.62426 10.4981 5.52531 10.6742 5.34919L11.1383 4.88513C11.6658 4.3576 12.3813 4.06123 13.1273 4.06123C13.8734 4.06123 14.5889 4.3576 15.1164 4.88513C15.6439 5.41266 15.9403 6.12815 15.9403 6.87419C15.9403 7.62023 15.6439 8.33572 15.1164 8.86325L13.2328 10.7476C12.7253 11.2548 12.0432 11.5488 11.3261 11.5696C10.6089 11.5904 9.91097 11.3363 9.375 10.8593C9.28267 10.7773 9.17507 10.7142 9.05835 10.6737C8.94164 10.6332 8.81809 10.6161 8.69476 10.6233C8.57143 10.6306 8.45074 10.6621 8.33958 10.716C8.22841 10.7699 8.12895 10.8451 8.04688 10.9375C7.9648 11.0298 7.90172 11.1374 7.86122 11.2541C7.82073 11.3708 7.80362 11.4944 7.81088 11.6177C7.81813 11.741 7.8496 11.8617 7.9035 11.9729C7.9574 12.0841 8.03267 12.1835 8.125 12.2656C9.01874 13.06 10.1823 13.4829 11.3775 13.4476C12.5728 13.4123 13.7094 12.9215 14.5547 12.0758L16.4391 10.1922C17.3181 9.3123 17.8121 8.11957 17.8125 6.87585C17.8129 5.63212 17.3198 4.43905 16.4414 3.55857V3.557Z" fill="#405E63"/>
</g>
</svg>
